{"accessors":[{"bufferView":0,"byteOffset":0,"componentType":5123,"count":624,"max":[623],"min":[0],"name":"buffer-0-accessor-indices-buffer-0-mesh-0","type":"SCALAR"},{"bufferView":2,"byteOffset":0,"componentType":5126,"count":624,"max":[90.42523193359375,59.29407119750977,49.47639846801758],"min":[-90.42523193359375,-95.82608032226562,-39.76008224487305],"name":"buffer-0-accessor-position-buffer-0-mesh-0","type":"VEC3"},{"bufferView":2,"byteOffset":7488,"componentType":5126,"count":624,"max":[0.9998031854629517,0.9284703135490417,0.9969164729118347],"min":[-0.9998031258583069,-0.7507408857345581,-0.9922781586647034],"name":"buffer-0-accessor-normal-buffer-0-mesh-0","type":"VEC3"},{"bufferView":1,"byteOffset":0,"componentType":5126,"count":624,"max":[1,0],"min":[0,-1],"name":"buffer-0-accessor-texcoord-buffer-0-mesh-0","type":"VEC2"},{"bufferView":3,"byteOffset":0,"componentType":5126,"count":0,"max":[0,0,0,0],"min":[0,0,0,0],"name":"buffer-0-accessor-color-buffer-0-mesh-0","type":"VEC4"}],"asset":{"extras":{"GOOGLE_processor_version":294144208},"generator":"Obj2GltfConverter","version":"2.0"},"bufferViews":[{"buffer":0,"byteLength":1248,"byteOffset":0,"byteStride":0,"name":"buffer-0-bufferview-ushort","target":34963},{"buffer":0,"byteLength":4992,"byteOffset":1248,"byteStride":8,"name":"buffer-0-bufferview-vec2","target":34962},{"buffer":0,"byteLength":14976,"byteOffset":6240,"byteStride":12,"name":"buffer-0-bufferview-vec3","target":34962},{"buffer":0,"byteLength":1,"byteOffset":0,"name":"buffer-0-bufferview-vec4"}],"buffers":[{"byteLength":21216,"name":"buffer-0","uri":"data:application/octet-stream;base64,"}],"cameras":[{"perspective":{"yfov":0.7853981633974483,"znear":0.1000000014901161},"type":"perspective"}],"extensions":{"KHR_lights_punctual":{"lights":[{"color":[1,0.9333333333333333,0.8666666666666667],"intensity":0.25,"name":"headLight","type":"directional"},{"color":[1,0.9333333333333333,0.8666666666666667],"intensity":0.324999988079071,"name":"keyLight","type":"directional"}]}},"extensionsUsed":["GOOGLE_backgrounds","GOOGLE_camera_settings","KHR_lights_punctual"],"extras":{"GOOGLE_initial_camera_motion":{"motionPath":"FULL_ROTATION"},"GOOGLE_lighting_rig":{"disableShadows":false}},"materials":[{"alphaMode":"OPAQUE","doubleSided":true,"name":"Heart Red","pbrMetallicRoughness":{"baseColorFactor":[0.76470589637756,0.08235294371843,0.19607843458652,1],"metallicFactor":0,"roughnessFactor":0.8582186230066646}}],"meshes":[{"name":"buffer-0-mesh-0","primitives":[{"attributes":{"NORMAL":2,"POSITION":1,"TEXCOORD_0":3},"indices":0,"material":0,"mode":4}]}],"nodes":[{"mesh":0,"name":"node-0"},{"children":[2]},{"children":[3],"extras":{"isTransformNode":1},"translation":[-0.4521261596679692,-8.511443816522737,3.132080175704339]},{"children":[0],"translation":[0.4521261596679692,8.511443816522737,-3.132080175704339]},{"camera":0,"children":[5],"rotation":[-0.116902142874534,0.01412319691253647,0.001662600991962797,0.9930416205065392],"translation":[8.076632670657512,63.09421917628506,302.9073647434406]},{"extensions":{"KHR_lights_punctual":{"light":0}},"extras":{"isHeadLight":1},"name":"headLightNode","translation":[-107.7633071671025,53.88165358355123,53.88165358355123]},{"extensions":{"KHR_lights_punctual":{"light":1}},"extras":{"isKeyLight":1},"name":"keyLightNode","rotation":[-0.7505326882858236,-0.3752663441429118,0,0.5439447166468927],"scale":[0,0,108.8409402387735],"translation":[-108.8409402387735,218.9467409205537,-102.6357366234773]}],"scene":0,"scenes":[{"extensions":{"GOOGLE_backgrounds":{"color":[0.8823529411764706,0.7450980392156863,0.9058823529411765]},"GOOGLE_camera_settings":{}},"extras":{"GOOGLE_camera_index":{"cameraIndex":0,"nodeIndex":4},"GOOGLE_geometry_data":{"stats":{"centroid":[0,1.264860443006723,6.205203615296154],"radius":107.7633071671025,"stdev":64.89138206333662},"visualCenterPoint":[-0.4521261596679692,-8.511443816522737,3.132080175704339]},"GOOGLE_hemi_light":{"groundColor":[0.8823529411764706,0.7450980392156863,0.9058823529411765]}},"name":"scene-0","nodes":[1,4,6]}]}